<?xml version="1.0" encoding="UTF-8" standalone="no"?>
<svg
   xmlns:dc="http://purl.org/dc/elements/1.1/"
   xmlns:cc="http://creativecommons.org/ns#"
   xmlns:rdf="http://www.w3.org/1999/02/22-rdf-syntax-ns#"
   xmlns:svg="http://www.w3.org/2000/svg"
   xmlns="http://www.w3.org/2000/svg"
   xmlns:sodipodi="http://sodipodi.sourceforge.net/DTD/sodipodi-0.dtd"
   xmlns:inkscape="http://www.inkscape.org/namespaces/inkscape"
   enable-background="new 0 0 512 512"
   id="Layer_1"
   version="1.1"
   viewBox="0 0 512 512"
   xml:space="preserve"
   inkscape:version="0.91 r13725"
   sodipodi:docname="drawing.svg"><metadata
     id="metadata17"><rdf:RDF><cc:Work
         rdf:about=""><dc:format>image/svg+xml</dc:format><dc:type
           rdf:resource="http://purl.org/dc/dcmitype/StillImage" /><dc:title></dc:title></cc:Work></rdf:RDF></metadata><defs
     id="defs15" /><sodipodi:namedview
     pagecolor="#ffffff"
     bordercolor="transparent"
     borderopacity="1"
     objecttolerance="10"
     gridtolerance="10"
     guidetolerance="10"
     inkscape:pageopacity="0"
     inkscape:pageshadow="2"
     inkscape:window-width="1366"
     inkscape:window-height="716"
     id="namedview13"
     showgrid="false"
     inkscape:zoom="0.4609375"
     inkscape:cx="-81.355932"
     inkscape:cy="256"
     inkscape:window-x="0"
     inkscape:window-y="24"
     inkscape:window-maximized="1"
     inkscape:current-layer="Layer_1" /><path
     d="M494,256c0,131.4-106.6,238-238,238S18,387.4,18,256S124.6,18,256,18S494,124.6,494,256z"
     fill="transparent"
     id="path3" /><g
     id="g5"
     style="fill:transparent"
     transform="matrix(1.4582074,0,0,1.4582074,-116.46505,-117.3699)"><path
       d="m 157.5,331.8 c 4,60.4 75,66.3 89.4,26 19.9,-43.7 77.9,-58 107.5,-8.5"
       stroke-miterlimit="10"
       id="path7"
       style="fill:transparent;stroke:#ffffff;stroke-width:15;stroke-miterlimit:10"
       inkscape:connector-curvature="0" /><path
       d="m 172,270.1 -7.2,7.3 -4,33.8 33.8,-4 7.3,-7.2 L 305,196.8 275.1,167 172,270.1 Z"
       stroke-miterlimit="10"
       id="path9"
       style="fill:transparent;stroke:#ffffff;stroke-width:15;stroke-miterlimit:10"
       inkscape:connector-curvature="0" /><path
       d="M 322.3,177.8 293.4,149 312.3,130 c 1.8,-1.9 4.9,-1.9 6.9,0 l 22,22 c 1.9,1.8 1.9,4.9 0,6.9 l -18.9,18.9 z"
       stroke-miterlimit="10"
       id="path11"
       style="fill:transparent;stroke:#ffffff;stroke-width:15;stroke-miterlimit:10"
       inkscape:connector-curvature="0" /></g></svg>
